<svg xmlns="http://www.w3.org/2000/svg" width="32.137" height="15.866" viewBox="0 0 32.137 15.866"><defs><style>.a{fill:#fff;fill-rule:evenodd;}</style></defs><path class="a" d="M158.048,713.993h-23.22l2.592-2.566a1.967,1.967,0,0,0,0-2.8,2.017,2.017,0,0,0-2.835,0l-6.01,5.952a1.948,1.948,0,0,0-.4.589,1.623,1.623,0,0,0-.07.2,1.84,1.84,0,0,0-.1.489,1.382,1.382,0,0,0,0,.2,1.934,1.934,0,0,0,.122.623q.006.027.014.054h0a1.983,1.983,0,0,0,.4.583c.016.018.022.042.04.06l6.01,5.952a2.019,2.019,0,0,0,2.835,0,1.967,1.967,0,0,0,0-2.805l-2.593-2.566h23.21a1.983,1.983,0,1,0,0-3.961Z" transform="translate(160.142 723.906) rotate(180)"/></svg>