<svg xmlns="http://www.w3.org/2000/svg" width="18.838" height="18.838" viewBox="0 0 18.838 18.838"><defs><style>.a{fill:#151e40;fill-rule:evenodd;}</style></defs><path class="a" d="M208.483,257.177h-2.355a1.177,1.177,0,1,0-2.355,0h-4.709a1.177,1.177,0,1,0-2.355,0h-2.355A2.355,2.355,0,0,0,192,259.532v12.951a2.355,2.355,0,0,0,2.355,2.355h14.128a2.355,2.355,0,0,0,2.355-2.355V259.532A2.355,2.355,0,0,0,208.483,257.177Zm-14.128,2.355h2.355a1.177,1.177,0,1,0,2.355,0h4.709a1.177,1.177,0,1,0,2.355,0h2.355v2.355H194.355Zm0,12.951v-8.242h14.128v8.242Z" transform="translate(-192 -256)"/></svg>