<svg xmlns="http://www.w3.org/2000/svg" width="19.844" height="19.169" viewBox="0 0 19.844 19.169"><defs><style>.a{fill:#171f37;fill-rule:evenodd;}</style></defs><path class="a" d="M115.651,521.287a9.3,9.3,0,0,0-1.967-5.351,10.109,10.109,0,0,0-9.984-3.643,9.554,9.554,0,0,0,2.044,18.952,10.075,10.075,0,0,0,4.347-.974,1.166,1.166,0,0,0,.283-1.9h0a1.238,1.238,0,0,0-1.372-.246,7.684,7.684,0,0,1-4.37.648,7.171,7.171,0,0,1,1.113-14.286,7.54,7.54,0,0,1,4.467,1.448,7.131,7.131,0,0,1,1.984,2.154,6.917,6.917,0,0,1,.994,3.579,1.242,1.242,0,0,1-2.483,0,4.789,4.789,0,0,0-2.965-4.369,5.094,5.094,0,0,0-3.476-.211,4.806,4.806,0,1,0,3.476,8.949,4.673,4.673,0,0,0,1.967-1.508,3.788,3.788,0,0,0,2.234.729,1.789,1.789,0,0,0,.246-.011,3.689,3.689,0,0,0,3.462-3.2c0-.123.012-.252.012-.384S115.651,521.407,115.651,521.287Zm-9.417,2.728a2.272,2.272,0,0,1-.492.048,2.4,2.4,0,1,1,0-4.788,2.264,2.264,0,0,1,.492.048,2.379,2.379,0,0,1,0,4.692Z" transform="translate(-95.819 -512.084)"/></svg>