<svg xmlns="http://www.w3.org/2000/svg" width="18.835" height="18.836" viewBox="0 0 18.835 18.836"><defs><style>.a{fill:#151e40;fill-rule:evenodd;}</style></defs><path class="a" d="M690.715,653.689l-.906,2.731a2.353,2.353,0,0,1-1.278,1.413,11.779,11.779,0,0,1-12.669-2.05c-.149-.134-.285-.268-.4-.384a11.182,11.182,0,0,1-1.766-2.237,9.5,9.5,0,0,1-.457-.849A11.526,11.526,0,0,1,672,647.062a11.653,11.653,0,0,1,1-4.758,2.362,2.362,0,0,1,1.412-1.278l2.732-.906a2.354,2.354,0,0,1,2.976,1.49l1.177,3.531a2.354,2.354,0,0,1-1.177,2.85l-.857.428a4.664,4.664,0,0,0,1.194,1.977,4.6,4.6,0,0,0,1.962,1.177l.428-.856a2.354,2.354,0,0,1,2.851-1.177l3.531,1.177A2.354,2.354,0,0,1,690.715,653.689Zm-2.236-.742-3.531-1.177-1.177,2.354a7.073,7.073,0,0,1-7.062-7.062l2.354-1.177-1.177-3.531-2.732.906a9.323,9.323,0,0,0-.8,3.8,9.229,9.229,0,0,0,1,4.214,7.071,7.071,0,0,0,.353.659,8.881,8.881,0,0,0,1.4,1.777c.106.106.212.212.33.318a9.416,9.416,0,0,0,10.135,1.648Z" transform="translate(-672 -639.999)"/></svg>